<svg width="68" height="65" viewBox="0 0 68 65" fill="none" xmlns="http://www.w3.org/2000/svg">
<rect width="68" height="65" fill="black"/>
<path d="M12.292 40.258C13.0893 40.362 13.8433 40.6133 14.554 41.012V42H6.52V41.012C6.79733 40.856 7.092 40.7173 7.404 40.596C7.716 40.4573 8.04533 40.3447 8.392 40.258V25.542C7.99333 25.4553 7.638 25.3427 7.326 25.204C7.03133 25.0653 6.76267 24.9267 6.52 24.788V23.8H20.118C20.118 24.1467 20.1007 24.528 20.066 24.944C20.0313 25.3427 19.988 25.7587 19.936 26.192C19.9013 26.608 19.8493 27.024 19.78 27.44C19.728 27.8387 19.6673 28.2113 19.598 28.558H18.532L17.336 25.49H12.292V32.328H15.854L17.024 30.326H17.804C17.8733 30.7767 17.9167 31.2533 17.934 31.756C17.9687 32.2587 17.986 32.7613 17.986 33.264C17.9687 33.784 17.9427 34.2867 17.908 34.772C17.8907 35.2573 17.856 35.6907 17.804 36.072H17.024L15.854 34.018H12.292V40.258ZM48.1466 42H41.7246V41.012C42.0019 40.8387 42.2966 40.6913 42.6086 40.57C42.9379 40.4313 43.2586 40.3273 43.5706 40.258L50.2786 23.488H52.2026L58.7286 40.258C59.0753 40.3273 59.4219 40.4313 59.7686 40.57C60.1153 40.6913 60.4186 40.8387 60.6786 41.012V42H52.5406V41.012C52.8699 40.856 53.2253 40.7087 53.6066 40.57C53.9879 40.4313 54.3519 40.3273 54.6986 40.258L53.1906 36.124H47.4186L45.8846 40.258C46.6819 40.362 47.4359 40.6133 48.1466 41.012V42ZM48.0426 34.434H52.6446L50.9546 29.468L50.4606 27.232H50.4086L49.8366 29.52L48.0426 34.434Z" fill="white"/>
<line x1="37.4663" y1="18.1805" x2="25.4663" y2="49.1805" stroke="white"/>
</svg>
