<svg width="77" height="36" viewBox="0 0 77 36" fill="none" xmlns="http://www.w3.org/2000/svg">
<path fill-rule="evenodd" clip-rule="evenodd" d="M31.7731 16.2624L22.9533 16.5764L31.3278 17.0418L31.7731 16.2624ZM30.7181 18.1157L21.8774 18.4302L30.2831 18.8972L30.7181 18.1157ZM29.6631 19.9847L20.8334 20.2946L29.2289 20.7613L29.6631 19.9847ZM28.6298 21.8442L19.7891 22.1591L28.1747 22.6249L28.6298 21.8442ZM39.4371 6.90743L28.18 7.30804L39.4691 7.93539L39.4371 6.90743ZM39.3657 5.06802L29.2531 5.4227L39.3977 6.00454L39.3657 5.06802ZM39.2936 3.2938L30.2835 3.59026L39.337 4.09296L39.2936 3.2938ZM39.2329 1.47243L31.3352 1.73649L39.264 2.20475L39.2329 1.47243ZM39.1816 0H32.3127L39.1919 0.36493L39.1816 0ZM27.5645 23.7028L18.7451 24.0223H27.3845L27.5645 23.7028Z" fill="#C4C4C4"/>
<path fill-rule="evenodd" clip-rule="evenodd" d="M57.4536 0.0594826H44.7433L44.3829 0.697495L50.7434 1.03495C50.818 1.03495 50.818 1.14074 50.7114 1.14074L44.0122 1.36462L43.366 2.49549L49.683 2.86862C49.7679 2.87928 49.747 2.99573 49.6728 2.99573L42.9626 3.21633L42.3381 4.29923L48.6448 4.6494C48.7826 4.66006 48.7826 4.77692 48.6448 4.77692L41.9457 5.01187L41.3097 6.14438L47.5955 6.5048C47.7333 6.51546 47.723 6.64257 47.5955 6.64257L40.8964 6.88121L40.2494 7.99978L46.5454 8.34954C46.6406 8.3602 46.652 8.47706 46.5245 8.47706L27.2213 9.12368L45.5388 10.1414C45.6548 10.1414 45.6446 10.2898 45.5171 10.2898L26.1827 10.9791L44.5002 11.9964C44.5851 11.9964 44.606 12.1342 44.4784 12.1342L25.1121 12.8337L43.4296 13.8514C43.5042 13.862 43.5776 13.9998 43.4193 14.0105L24.0838 14.6985L42.4008 15.7158C42.4537 15.7265 42.5066 15.8642 42.3799 15.8642L32.6486 16.2111L32.6805 17.0894L41.3515 17.5712C41.4147 17.5819 41.4467 17.709 41.3298 17.709L32.7125 18.0153L32.7548 18.9977L40.2813 19.4159C40.3551 19.4266 40.3871 19.575 40.2596 19.575L32.797 19.837L32.8294 20.915L39.2427 21.2713C39.3165 21.2816 39.3378 21.4194 39.2107 21.4194L32.8614 21.6461L32.9036 22.8319L38.2037 23.1263C38.2783 23.137 38.2783 23.2645 38.1721 23.2645L32.9249 23.4544L32.9462 23.964H50.0553C54.5919 23.964 58.6619 20.6567 59.4254 18.0276C60.1893 15.3988 60.1893 13.0243 56.5425 11.8373C58.5783 11.3707 62.1181 9.07489 62.818 5.90082C63.4528 3.01705 62.3932 0.0701435 57.4536 0.0594826ZM48.8478 18.47H43.5903L46.5581 13.2121H50.4592C54.4874 13.2121 52.5364 18.47 48.8478 18.47ZM55.6527 7.19038C55.4829 7.82634 54.2102 9.43777 52.6 9.43777H48.6989L51.2001 5.02827H53.1933C55.7368 5.11315 55.8216 6.55483 55.6527 7.19038ZM76.7125 31.5829C76.7125 29.5454 75.0186 27.8389 72.9811 27.8389C70.8908 27.8389 69.1842 29.5725 69.1842 31.7022C69.1821 32.2032 69.2792 32.6996 69.47 33.1628C69.6607 33.6261 69.9413 34.0469 70.2956 34.4012C70.6499 34.7554 71.0708 35.0359 71.534 35.2266C71.9973 35.4173 72.4937 35.5144 72.9947 35.5122C74.5417 35.5122 76.0105 34.4539 76.4472 33.0118H74.5155C74.1317 33.6203 73.6298 33.8979 72.941 33.8979C72.068 33.8979 71.2881 33.3026 71.0364 32.4558H76.619C76.6858 32.0462 76.7125 31.8473 76.7125 31.5829ZM70.9839 31.0728C71.2352 30.0805 72.029 29.4454 73.0078 29.4454C73.9874 29.4454 74.7545 30.0674 74.9924 31.0728H70.9839ZM51.6323 28.1919V28.786C51.0771 28.1907 50.2726 27.852 49.4124 27.852C47.5074 27.852 45.8832 29.479 45.8832 31.596C45.8832 33.5933 47.32 35.3847 49.4501 35.3847C50.3895 35.3847 51.1038 35.1678 51.7783 34.4006V35.34H53.393V28.1919H51.6323ZM49.6605 33.8696C49.0721 33.8696 48.5078 33.6359 48.0918 33.2199C47.6757 32.8038 47.442 32.2395 47.442 31.6511C47.442 31.0628 47.6757 30.4985 48.0918 30.0824C48.5078 29.6664 49.0721 29.4327 49.6605 29.4327C50.2488 29.4327 50.8131 29.6664 51.2292 30.0824C51.6452 30.4985 51.8789 31.0628 51.8789 31.6511C51.8789 32.2395 51.6452 32.8038 51.2292 33.2199C50.8131 33.6359 50.2488 33.8696 49.6605 33.8696ZM3.51932 27.8384C2.79192 27.8384 2.23633 28.0898 1.62743 28.7118V28.0107H0V35.34H1.75987V31.8867C1.75987 30.9477 1.839 29.4523 3.13553 29.4523C4.35251 29.4523 4.48495 30.8547 4.48495 31.7543V35.3396H6.24441V31.4102C6.24441 30.3782 6.16527 29.889 5.88727 29.3068C5.47724 28.4338 4.51161 27.8384 3.51932 27.8384ZM14.4525 31.5829C14.4525 29.5454 12.759 27.8389 10.7216 27.8389C8.63122 27.8389 6.92466 29.5725 6.92466 31.7022C6.92259 32.2031 7.01974 32.6995 7.21048 33.1627C7.40122 33.6258 7.68179 34.0467 8.03599 34.4009C8.3902 34.7551 8.81103 35.0357 9.27422 35.2264C9.73741 35.4171 10.2338 35.5143 10.7347 35.5122C12.2826 35.5122 13.7509 34.4539 14.1876 33.0118H12.2563C11.8725 33.6203 11.3698 33.8979 10.6818 33.8979C9.80884 33.8979 9.02813 33.3026 8.77678 32.4558H14.3594C14.4262 32.0462 14.4525 31.8473 14.4525 31.5829ZM8.7243 31.0728C8.97565 30.0805 9.76947 29.4454 10.7486 29.4454C11.7278 29.4454 12.495 30.0674 12.7332 31.0728H8.7243ZM43.4029 35.3339H45.1624V25.557H43.4029V35.3339ZM58.035 27.8384C57.3072 27.8384 56.7512 28.0898 56.1427 28.7118V28.0107H54.5153V35.34H56.2755V31.8867C56.2755 30.9477 56.3547 29.4523 57.6512 29.4523C58.8678 29.4523 59.0006 30.8547 59.0006 31.7543V35.3396H60.7601V31.4102C60.7601 30.3782 60.6809 29.889 60.4029 29.3068C59.9929 28.4338 59.0273 27.8384 58.035 27.8384ZM65.1524 29.4527C65.9589 29.4527 66.4218 29.7176 66.8589 30.4581H68.8427C68.3006 28.884 66.9118 27.8384 65.218 27.8384C63.0747 27.8384 61.3546 29.545 61.3546 31.6489C61.3546 33.7655 63.0878 35.5118 65.218 35.5118C65.7613 35.509 66.2981 35.3934 66.7944 35.1725C67.2908 34.9516 67.736 34.6301 68.1017 34.2284C68.4724 33.8184 68.6049 33.5801 68.8427 32.9323H66.8589C66.4481 33.567 65.9195 33.8975 65.2582 33.8975C64.0272 33.8975 63.1149 32.945 63.1149 31.6747C63.1149 30.3921 63.9879 29.4527 65.1524 29.4527ZM21.1779 32.4825L19.9318 28.0111H18.5159L17.2563 32.4825L15.7666 28.0111H14.2142L16.6613 35.34H17.7885L19.2175 30.591L20.6063 35.34H21.7892L24.1358 28.0111H22.681L21.1779 32.4825ZM30.6049 27.8462C29.7451 27.8462 28.9406 28.1849 28.385 28.7799V25.5574H26.6252V35.3339H28.239V34.3949C28.914 35.1621 29.6282 35.3786 30.5676 35.3786C32.6978 35.3786 34.1345 33.5875 34.1345 31.5898C34.1349 29.4732 32.5104 27.8462 30.6049 27.8462ZM30.3569 33.8696C29.7685 33.8696 29.2042 33.6359 28.7882 33.2199C28.3721 32.8038 28.1384 32.2395 28.1384 31.6511C28.1384 31.0628 28.3721 30.4985 28.7882 30.0824C29.2042 29.6664 29.7685 29.4327 30.3569 29.4327C30.9453 29.4327 31.5095 29.6664 31.9256 30.0824C32.3416 30.4985 32.5754 31.0628 32.5754 31.6511C32.5754 32.2395 32.3416 32.8038 31.9256 33.2199C31.5095 33.6359 30.9453 33.8696 30.3569 33.8696ZM40.4675 28.1919V28.786C39.9119 28.1907 39.1078 27.852 38.2476 27.852C36.3426 27.852 34.7176 29.479 34.7176 31.596C34.7176 33.5933 36.1548 35.3847 38.2845 35.3847C39.2239 35.3847 39.9381 35.1678 40.6131 34.4006V35.34H42.227V28.1919H40.4675ZM38.4961 33.8696C37.9077 33.8696 37.3434 33.6359 36.9273 33.2199C36.5113 32.8038 36.2776 32.2395 36.2776 31.6511C36.2776 31.0628 36.5113 30.4985 36.9273 30.0824C37.3434 29.6664 37.9077 29.4327 38.4961 29.4327C39.0844 29.4327 39.6487 29.6664 40.0648 30.0824C40.4808 30.4985 40.7145 31.0628 40.7145 31.6511C40.7145 32.2395 40.4808 32.8038 40.0648 33.2199C39.6487 33.6359 39.0844 33.8696 38.4961 33.8696Z" fill="#C4C4C4"/>
</svg>
