<svg width="70" height="37" viewBox="0 0 70 37" fill="none" xmlns="http://www.w3.org/2000/svg">
<path fill-rule="evenodd" clip-rule="evenodd" d="M11.6683 22.2638C11.1147 22.2638 10.6813 22.6511 10.6813 23.2162C10.6813 23.7816 11.117 24.1667 11.6683 24.1667C12.2192 24.1667 12.6552 23.779 12.6552 23.2162C12.6552 22.6511 12.2214 22.2638 11.6683 22.2638ZM11.6683 23.8943C11.2736 23.8943 10.9808 23.606 10.9808 23.2162C10.9808 22.8267 11.2713 22.5362 11.6683 22.5362C12.0604 22.5362 12.3554 22.8312 12.3554 23.2162C12.3554 23.599 12.0578 23.8943 11.6683 23.8943ZM21.2716 18.9329H16.4671L17.0132 10.5821L13.8932 18.9329H9.43176L16.5107 0.0576687H21.2578L20.7099 8.52304L23.889 0.0576687H28.3509L21.2716 18.9329ZM21.8512 18.9329L28.9297 0.0576687H33.3912L26.3127 18.9329H21.8512Z" fill="#C4C4C4"/>
<path fill-rule="evenodd" clip-rule="evenodd" d="M8.91729 12.4268C2.68284 19.7483 -3.19821 29.49 1.99649 33.976C7.03011 38.3233 13.3218 35.7494 17.6118 34.0333C21.9018 32.3173 69.3188 11.726 69.3188 11.726C69.7764 11.4972 69.6908 11.2111 69.1187 11.354C68.8881 11.4116 17.4976 25.3388 17.4976 25.3388C10.9763 27.1694 3.54069 23.1797 8.91729 12.4268Z" fill="#C4C4C4"/>
<path fill-rule="evenodd" clip-rule="evenodd" d="M11.8364 23.2831C11.9748 23.2764 12.0831 23.205 12.0831 23.0134C12.0831 22.7664 11.9216 22.7043 11.6519 22.7043H11.2643V23.7284H11.5228V23.2924H11.5664L11.8018 23.7284H12.0991L11.8364 23.2831ZM11.6705 23.1172H11.5232V22.8795H11.6474C11.7237 22.8795 11.8111 22.8884 11.8111 22.9878C11.8111 23.0942 11.7605 23.1172 11.6705 23.1172ZM56.5166 0C55.9631 0 55.5297 0.38763 55.5297 0.952336C55.5297 1.51741 55.9657 1.90244 56.5166 1.90244C57.0676 1.90244 57.5036 1.51481 57.5036 0.952336C57.5039 0.38763 57.0705 0 56.5166 0ZM56.5166 1.63088C56.1219 1.63088 55.8292 1.34257 55.8292 0.952709C55.8292 0.563218 56.1197 0.27268 56.5166 0.27268C56.9087 0.27268 57.2041 0.567682 57.2041 0.952709C57.2041 1.3355 56.9065 1.63088 56.5166 1.63088Z" fill="#C4C4C4"/>
<path fill-rule="evenodd" clip-rule="evenodd" d="M56.6851 1.0193C56.8235 1.01261 56.9321 0.941184 56.9321 0.749601C56.9321 0.502588 56.7703 0.440463 56.501 0.440463H56.1134V1.46423H56.3715V1.02861H56.4154L56.6505 1.46423H56.9481L56.6851 1.0193ZM56.5188 0.85339H56.3715V0.615678H56.4961C56.572 0.615678 56.6598 0.624978 56.6598 0.724304C56.6598 0.830326 56.6089 0.85339 56.5188 0.85339ZM53.577 3.20373L54.776 0.0576687H41.1628L36.4885 5.72035L38.6465 0.0576687H34.1278L27.1058 18.9329H31.5672L34.5652 11.0397L34.7706 18.9329L48.4601 18.9031L49.7632 15.2724H44.5585L46.2686 10.6967H50.5582L51.8781 7.17898H47.5885L49.059 3.20373H53.577ZM39.1967 17.6744L38.9107 7.83669L45.6562 0.430419L39.1967 17.6744Z" fill="#C4C4C4"/>
</svg>
