<svg width="68" height="34" viewBox="0 0 68 34" fill="none" xmlns="http://www.w3.org/2000/svg">
<path d="M36.6492 0.114528C36.4267 0.148728 36.2129 0.965182 35.7829 1.39051C35.4685 1.69747 35.076 1.67827 34.8675 2.05776C34.7883 2.19954 34.814 2.44155 34.7242 2.67391C34.5488 3.13864 33.9307 3.18019 33.9307 3.68654C33.9285 4.23337 34.4461 4.33781 34.8942 4.72579C35.2439 5.03811 35.2782 5.25342 35.7016 5.40476C36.0632 5.5274 36.6011 5.12656 37.0855 5.27048C37.4834 5.38884 37.8641 5.47408 37.954 5.88127C38.033 6.25648 37.9486 6.83843 37.4663 6.77133C37.3037 6.75319 36.5989 6.51654 35.7327 6.6082C34.6878 6.72657 33.4953 7.06651 33.3788 8.22742C33.3146 8.87654 34.1199 9.64188 34.8974 9.48626C35.4353 9.38067 35.1808 8.74869 35.4739 8.44165C35.8577 8.04838 38.033 9.81457 40.0554 9.81457C40.9067 9.81457 41.5398 9.60034 42.1687 8.94372C42.2274 8.8936 42.2991 8.78595 42.39 8.77952C42.4756 8.78595 42.6253 8.87011 42.6745 8.90638C44.3033 10.2111 45.5342 12.828 51.52 12.8589C52.3617 12.8631 53.3209 13.2639 54.1037 13.9759C54.8021 14.6198 55.2107 15.6206 55.6074 16.6365C56.2063 18.1608 57.2801 19.6435 58.9077 21.2936C58.9966 21.382 60.3366 22.4203 60.4435 22.4981C60.4606 22.5087 60.559 22.7432 60.5249 22.8743C60.4853 23.8635 60.3409 26.7404 62.4926 26.8705C63.0188 26.8971 62.8808 26.5283 62.8808 26.2746C62.8798 25.7736 62.7877 25.2758 63.053 24.7631C63.4155 24.0576 62.2841 23.7324 62.3172 22.207C62.3407 21.0697 61.3825 21.2637 60.8959 20.3971C60.6157 19.895 60.3665 19.6286 60.3847 19.0145C60.4938 15.5589 59.6468 13.2884 59.2243 12.731C58.895 12.3099 58.6223 12.1426 58.9238 11.9475C60.7195 10.7654 61.1269 9.66529 61.1269 9.66529C62.0819 7.42795 62.9407 5.38448 64.1246 4.48494C64.3631 4.2994 64.9748 3.84431 65.3502 3.66519C66.4549 3.14606 67.0367 2.83168 67.3576 2.52035C67.8655 2.02685 68.2666 0.998234 67.7799 0.374666C67.1747 -0.394962 66.1277 0.215829 65.6657 0.488669C62.3643 2.44155 61.8777 5.88655 60.7344 7.86498C59.8222 9.44571 58.3388 10.6065 57.0127 10.7014C56.0181 10.7749 54.9465 10.5746 53.8792 10.1077C51.2836 8.97356 49.8633 7.50897 49.5287 7.24998C48.8313 6.71379 43.4177 1.41713 39.0319 1.20076C39.0319 1.20076 38.4876 0.114604 38.3507 0.096471C38.0298 0.05592 37.7016 0.745594 37.4663 0.825625C37.2449 0.899076 36.8727 0.0783378 36.6492 0.114604V0.114528ZM17.3412 31.7269C16.9284 31.7173 16.5777 31.3794 16.5777 30.9616L16.5787 17.3262H12.0699V32.3568C12.0699 33.0934 12.6687 33.6946 13.4035 33.6946H21.2843C22.0243 33.6946 22.6158 33.0934 22.6158 32.3568V17.3262H18.1113L18.107 30.9616C18.107 31.3794 17.7562 31.7173 17.3412 31.7269ZM32.4377 17.3262H25.6135C24.8061 17.3262 24.1483 17.9806 24.1483 18.7939V33.6945H28.6613V20.0262C28.6645 19.6073 29.0046 19.2758 29.4239 19.2758C29.8453 19.2758 30.1832 19.5998 30.1928 20.0145V33.6946H34.6877V20.0144C34.6931 19.5998 35.031 19.2757 35.4513 19.2757C35.8684 19.2757 36.2128 19.6073 36.216 20.0262V33.6946H40.7291V18.7939C40.7291 17.9806 40.0703 17.3262 39.2629 17.3262H32.4377ZM6.03599 20.0549C6.03921 19.5998 5.66706 19.2757 5.27241 19.2757H4.50669V27.5548H5.27241C5.67028 27.5548 6.03929 27.2393 6.03599 26.7863V20.0549ZM9.06151 29.5811H4.50669V33.6946H0V17.3262H9.09045C9.90423 17.3262 10.5395 17.9849 10.5395 18.8004V28.107C10.5395 28.9235 9.87966 29.5811 9.06151 29.5811ZM56.1946 30.0342C55.2888 30.0342 54.5283 30.8144 54.5283 31.76C54.5283 32.7086 55.2888 33.4825 56.2234 33.4825C57.1507 33.4825 57.9014 32.7086 57.9014 31.76C57.9014 30.8123 57.1507 30.0342 56.2234 30.0342H56.1946ZM58.2244 31.7546C58.2244 32.8663 57.3303 33.7703 56.2234 33.7703C55.1048 33.7703 54.2065 32.8728 54.2065 31.7546C54.2065 30.6577 55.1048 29.7411 56.1903 29.7411C57.3303 29.7411 58.2244 30.6301 58.2244 31.7546Z" fill="#C4C4C4"/>
<path d="M56.0148 31.6267C56.3281 31.6267 56.4929 31.5158 56.4929 31.2942C56.4929 31.0969 56.3335 30.9957 56.0287 30.9957H55.9389V31.6267H56.0148ZM57.1688 32.9207H56.6308L55.9389 32.003V32.9207H55.4993V30.6002H55.9614C56.5891 30.6002 56.9228 30.8369 56.9228 31.2888C56.9228 31.5904 56.726 31.8581 56.4511 31.9379L56.419 31.9497L57.1688 32.9207ZM48.2955 27.558V20.0209C48.2848 19.6041 47.9479 19.2843 47.5276 19.2843C47.1116 19.2843 46.7672 19.6168 46.7641 20.0326V27.558H48.2955ZM48.2955 33.6946V29.5854H46.7641V33.6946H42.2595V18.794C42.2595 17.9806 42.9172 17.3262 43.7246 17.3262H51.3348C52.1445 17.3262 52.8022 17.9806 52.8022 18.794V33.6946L48.2955 33.6946Z" fill="#C4C4C4"/>
</svg>
